Coordinates
version=1
nRows=43
nColumns=12
inDegrees=yes

Units are S.I. units (second, meters, Newtons, ...)
Angles are in degrees

endheader
time	SC_y	SC_z	SC_x	AC_y	AC_z	AC_x	GH_y	GH_z	GH_yy	EL_x	PS_y
       0.0              -48.45          35.32           1.77          68.59         -15.89         -2.914          147.8          3.425         -106.2          5.646          15.56
   0.03368              -48.45          35.31          1.772          68.59         -15.89         -2.915          147.7          3.426         -106.2          5.651          15.56
   0.06735              -48.44          35.31          1.774          68.59         -15.89         -2.917          147.7          3.427         -106.2          5.656          15.56
     0.101              -48.44          35.31          1.776          68.58         -15.88         -2.918          147.6          3.428         -106.2          5.661          15.57
    0.1347              -48.44           35.3          1.778          68.58         -15.88         -2.919          147.6          3.429         -106.2          5.667          15.57
    0.1684              -48.43           35.3          1.781          68.57         -15.88         -2.921          147.5           3.43         -106.2          5.673          15.57
    0.2021              -48.43          35.29          1.784          68.57         -15.88         -2.922          147.5          3.431         -106.2           5.68          15.57
    0.2357              -48.43          35.29          1.786          68.56         -15.87         -2.924          147.4          3.433         -106.2          5.687          15.58
    0.2694              -48.42          35.28           1.79          68.56         -15.87         -2.926          147.4          3.434         -106.2          5.694          15.58
    0.3031              -48.42          35.28          1.793          68.55         -15.86         -2.928          147.3          3.436         -106.2          5.702          15.59
    0.3368              -48.41          35.27          1.796          68.55         -15.86          -2.93          147.3          3.437         -106.2          5.711          15.59
    0.3704              -48.41          35.27            1.8          68.54         -15.85         -2.932          147.2          3.439         -106.2           5.72          15.59
    0.4041               -48.4          35.26          1.804          68.54         -15.85         -2.935          147.1          3.441         -106.2           5.73           15.6
    0.4378              -48.39          35.26          1.809          68.53         -15.84         -2.937          147.0          3.443         -106.2          5.741           15.6
    0.4715              -48.39          35.25          1.814          68.52         -15.84          -2.94          146.9          3.445         -106.2          5.753          15.61
    0.5051              -48.38          35.24          1.819          68.51         -15.83         -2.943          146.9          3.448         -106.1          5.765          15.62
    0.5388              -48.37          35.23          1.824           68.5         -15.82         -2.947          146.7           3.45         -106.1          5.779          15.62
    0.5725              -48.36          35.22          1.831          68.49         -15.81          -2.95          146.6          3.453         -106.1          5.794          15.63
    0.6062              -48.35          35.21          1.837          68.48         -15.81         -2.954          146.5          3.456         -106.1          5.811          15.64
    0.6398              -48.34           35.2          1.845          68.47          -15.8         -2.959          146.4           3.46         -106.1          5.829          15.64
    0.6735              -48.33          35.19          1.853          68.46         -15.79         -2.964          146.2          3.463         -106.1          5.848          15.65
    0.7072              -48.32          35.17          1.862          68.44         -15.77         -2.969          146.1          3.468         -106.0           5.87          15.66
    0.7409               -48.3          35.16          1.872          68.42         -15.76         -2.975          145.9          3.472         -106.0          5.894          15.68
    0.7745              -48.29          35.14          1.883          68.41         -15.75         -2.981          145.7          3.477         -106.0          5.921          15.69
    0.8082              -48.27          35.12          1.895          68.39         -15.73         -2.989          145.5          3.483         -106.0           5.95           15.7
    0.8419              -48.25           35.1          1.908          68.36         -15.71         -2.997          145.2          3.489         -105.9          5.983          15.72
    0.8756              -48.23          35.08          1.923          68.34          -15.7         -3.006          144.9          3.496         -105.9           6.02          15.73
    0.9092               -48.2          35.05           1.94          68.31         -15.67         -3.016          144.6          3.504         -105.9          6.062          15.75
    0.9429              -48.17          35.02           1.96          68.28         -15.65         -3.027          144.3          3.513         -105.8          6.108          15.78
    0.9766              -48.14          34.99          1.982          68.24         -15.62          -3.04          143.9          3.523         -105.8          6.162           15.8
      1.01               -48.1          34.95          2.007           68.2         -15.59         -3.055          143.4          3.534         -105.7          6.223          15.83
     1.044              -48.06           34.9          2.035          68.16         -15.55         -3.072          142.9          3.548         -105.7          6.292          15.86
     1.078              -48.01          34.85          2.068           68.1         -15.51         -3.092          142.3          3.563         -105.6          6.373           15.9
     1.111              -47.96          34.79          2.107          68.04         -15.46         -3.115          141.6          3.581         -105.5          6.467          15.94
     1.145              -47.89          34.72          2.152          67.97          -15.4         -3.142          140.7          3.602         -105.4          6.576           16.0
     1.179              -47.82          34.64          2.205          67.88         -15.33         -3.174          139.8          3.626         -105.3          6.705          16.06
     1.212              -47.72          34.54          2.268          67.77         -15.25         -3.211          138.6          3.655         -105.1          6.859          16.13
     1.246              -47.61          34.42          2.344          67.65         -15.15         -3.256          137.2           3.69         -105.0          7.043          16.22
      1.28              -47.48          34.28          2.435           67.5         -15.04         -3.311          135.5          3.732         -104.8          7.265          16.32
     1.313              -47.32          34.11          2.547          67.32         -14.89         -3.377          133.5          3.784         -104.5          7.537          16.45
     1.347              -47.11          33.89          2.685          67.09         -14.72          -3.46          130.9          3.848         -104.2          7.873          16.61
     1.381              -46.86          33.62          2.857          66.81         -14.49         -3.562          127.8          3.927         -103.8          8.291           16.8
     1.414              -46.55          33.29          3.073          66.45         -14.21         -3.691          123.8          4.027         -103.3          8.818          17.05
